<!DOCTYPE svg PUBLIC "-//W3C//DTD SVG 1.1//EN" "http://www.w3.org/Graphics/SVG/1.1/DTD/svg11.dtd">
<!-- Uploaded to: SVG Repo, www.svgrepo.com, Transformed by: SVG Repo Mixer Tools -->
<svg width="800px" height="800px" viewBox="0 0 48 48" xmlns="http://www.w3.org/2000/svg" fill="#000000">
<g id="SVGRepo_bgCarrier" stroke-width="0"/>
<g id="SVGRepo_tracerCarrier" stroke-linecap="round" stroke-linejoin="round" stroke="#CCCCCC" stroke-width="3.168">
<defs>
<style>.a{fill:none;stroke:#607d8b;stroke-linecap:round;stroke-linejoin:round;}</style>
</defs>
<circle class="a" cx="20.5976" cy="19.1083" r="4.7847"/>
<path class="a" d="M8.1574,19.1083a12.44,12.44,0,1,1,24.88,0c0,3.73-1.3943,7.3932-4.2412,9.3561C21.1215,33.7566,21.6608,42.5,14.6433,42.5c-6.4951,0-6.4859-5.8479-6.4859-5.8479"/>
<path class="a" d="M34.7267,32.175A19.2451,19.2451,0,0,0,34.2059,5.5"/>
</g>
<g id="SVGRepo_iconCarrier">
<defs>
<style>.a{fill:none;stroke:#607d8b;stroke-linecap:round;stroke-linejoin:round;}</style>
</defs>
<circle class="a" cx="20.5976" cy="19.1083" r="4.7847"/>
<path class="a" d="M8.1574,19.1083a12.44,12.44,0,1,1,24.88,0c0,3.73-1.3943,7.3932-4.2412,9.3561C21.1215,33.7566,21.6608,42.5,14.6433,42.5c-6.4951,0-6.4859-5.8479-6.4859-5.8479"/>
<path class="a" d="M34.7267,32.175A19.2451,19.2451,0,0,0,34.2059,5.5"/>
</g>
</svg>