<?xml version="1.0" standalone="no"?>
<!DOCTYPE svg PUBLIC "-//W3C//DTD SVG 20010904//EN"
 "http://www.w3.org/TR/2001/REC-SVG-20010904/DTD/svg10.dtd">
<svg version="1.0" xmlns="http://www.w3.org/2000/svg"
 width="907.000000pt" height="1280.000000pt" viewBox="0 0 907.000000 1280.000000"
 preserveAspectRatio="xMidYMid meet">
<metadata>
Created by potrace 1.15, written by Peter Selinger 2001-2017
</metadata>
<g transform="translate(0.000000,1280.000000) scale(0.100000,-0.100000)"
fill="#ffc107" stroke="none">
<path d="M5537 12783 c-61 -21 -139 -90 -167 -148 -22 -45 -230 -1067 -230
-1130 0 -93 65 -198 156 -251 135 -79 340 -11 402 133 29 69 225 1053 224
1129 -1 104 -58 197 -152 248 -67 36 -161 44 -233 19z"/>
<path d="M2203 12486 c-88 -28 -171 -113 -194 -200 -24 -90 -13 -134 174 -644
98 -266 184 -496 191 -511 20 -38 97 -107 143 -127 58 -26 176 -24 235 5 106
51 168 148 168 263 0 60 -11 97 -114 380 -280 766 -266 734 -338 787 -77 57
-177 74 -265 47z"/>
<path d="M8676 11234 c-55 -20 -90 -49 -541 -446 -451 -399 -447 -395 -453
-528 -3 -58 1 -85 16 -121 70 -161 256 -228 409 -147 60 32 883 759 915 809
124 191 -16 450 -242 448 -36 0 -83 -7 -104 -15z"/>
<path d="M190 10713 c-28 -10 -66 -37 -102 -73 -45 -45 -60 -69 -73 -115 -21
-69 -16 -143 13 -207 17 -39 643 -818 745 -928 61 -66 125 -94 212 -94 115 -1
214 59 265 161 36 69 36 188 0 256 -31 58 -719 906 -773 952 -73 63 -190 82
-287 48z"/>
<path d="M4250 10714 c-192 -17 -294 -29 -415 -50 -625 -107 -1207 -363 -1680
-740 -136 -108 -394 -365 -500 -499 -495 -620 -744 -1379 -745 -2266 0 -608
118 -1124 367 -1599 455 -868 1316 -1540 2667 -2082 109 -44 249 -98 310 -120
181 -66 608 -208 624 -208 9 0 12 -3 9 -7 -9 -8 -83 -13 -832 -58 -1350 -79
-1573 -98 -1749 -150 -153 -46 -250 -165 -250 -311 -1 -120 69 -231 179 -287
89 -44 337 -103 680 -161 300 -50 447 -71 1638 -233 156 -21 200 -30 175 -35
-18 -3 -208 -18 -423 -32 -738 -50 -979 -70 -1245 -107 -544 -74 -882 -205
-968 -375 -87 -172 -15 -364 171 -453 78 -37 178 -63 347 -90 275 -43 519 -68
1515 -151 577 -48 1005 -92 999 -102 -3 -4 -15 -8 -27 -8 -35 0 -121 -45 -159
-82 -87 -87 -109 -229 -54 -341 46 -96 159 -167 264 -167 42 0 314 58 527 112
282 72 469 143 581 223 251 179 225 503 -52 647 -161 83 -371 132 -854 197
-198 27 -842 91 -916 91 -27 0 -43 4 -39 10 3 5 35 10 69 10 66 0 471 32 636
51 582 64 992 154 1141 250 122 78 187 200 175 327 -18 201 -177 322 -531 406
-247 60 -661 131 -1115 192 -47 7 -23 10 160 25 622 51 928 93 1116 155 142
46 220 105 275 206 30 57 33 71 34 148 0 76 -3 92 -33 152 -71 144 -201 214
-607 324 -383 103 -1000 293 -1055 325 -10 5 7 9 47 9 72 0 337 33 436 55 l68
14 36 -40 c20 -22 57 -52 82 -67 41 -24 56 -27 138 -27 l91 0 129 65 c553 279
1062 714 1414 1212 348 490 547 1021 631 1678 21 164 17 710 -5 875 -62 446
-176 822 -361 1190 -511 1014 -1450 1718 -2501 1875 -135 20 -498 34 -615 24z"/>
</g>
</svg>
